<?xml version="1.0" encoding="UTF-8" standalone="no"?>
<!-- Created with Inkscape (http://www.inkscape.org/) -->

<svg
   width="180.58664mm"
   height="123.6752mm"
   viewBox="0 0 180.58664 123.6752"
   version="1.1"
   id="svg5"
   xml:space="preserve"
   inkscape:export-filename="logo.svg"
   inkscape:export-xdpi="96"
   inkscape:export-ydpi="96"
   xmlns:inkscape="http://www.inkscape.org/namespaces/inkscape"
   xmlns:sodipodi="http://sodipodi.sourceforge.net/DTD/sodipodi-0.dtd"
   xmlns="http://www.w3.org/2000/svg"
   xmlns:svg="http://www.w3.org/2000/svg"><sodipodi:namedview
     id="namedview7"
     pagecolor="#ffffff"
     bordercolor="#000000"
     borderopacity="0.25"
     inkscape:showpageshadow="2"
     inkscape:pageopacity="0.0"
     inkscape:pagecheckerboard="0"
     inkscape:deskcolor="#d1d1d1"
     inkscape:document-units="mm"
     showgrid="false"
     inkscape:zoom="0.7483165"
     inkscape:cx="331.41057"
     inkscape:cy="561.25984"
     inkscape:window-width="1854"
     inkscape:window-height="1011"
     inkscape:window-x="0"
     inkscape:window-y="0"
     inkscape:window-maximized="1"
     inkscape:current-layer="layer1" /><defs
     id="defs2" /><g
     inkscape:label="Layer 1"
     inkscape:groupmode="layer"
     id="layer1"
     transform="translate(-14.947687,-22.15524)"><path
       style="fill:#393185;fill-opacity:1;stroke-width:0.22706"
       d="m 27.231291,118.20684 c -8.257098,-0.1726 -12.085737,-0.39067 -12.276444,-0.69924 -0.06881,-0.11134 0.366257,-0.20229 0.966821,-0.20211 1.688899,4.5e-4 15.839306,-0.70784 15.928847,-0.79738 0.04366,-0.0437 -0.187211,-0.74578 -0.513053,-1.56026 -0.32584,-0.81447 -0.656902,-1.95118 -0.735694,-2.52602 l -0.143255,-1.04516 -4.384064,0.15934 c -4.799588,0.17444 -4.816023,0.17118 -6.102317,-1.21093 l -0.582991,-0.62642 1.423418,-0.14376 c 0.78288,-0.0791 3.288146,-0.1557 5.567258,-0.17029 l 4.14384,-0.0265 v -2.58145 c 0,-4.20667 0.889816,-8.132329 2.194892,-9.683319 0.424569,-0.50457 0.76505,-0.67764 1.333163,-0.67764 1.764996,0 2.923466,3.07157 3.532554,9.366219 l 0.280128,2.89501 0.927592,-6.8e-4 c 0.510176,-4.6e-4 4.350517,-0.10292 8.534092,-0.22793 11.632893,-0.34757 39.535491,-1.13245 40.303105,-1.13368 l 0.681179,-10e-4 0.05477,-2.66745 c 0.131077,-6.383549 1.317471,-11.333999 3.357083,-14.008069 0.329261,-0.43169 1.121284,-1.04532 1.760053,-1.36363 3.479057,-1.73369 6.885662,0.50359 8.894932,5.84174 0.71769,1.90671 1.64045,6.440349 1.84737,9.076339 l 0.15596,1.98677 h 14.01128 14.01128 l 0.14873,-3.10121 c 0.0818,-1.70566 0.15462,-4.234539 0.16181,-5.619719 0.007,-1.38519 0.0888,-2.92723 0.18143,-3.42676 l 0.16834,-0.90824 0.51112,1.34449 c 0.84665,2.22709 1.37349,4.41047 1.92539,7.979349 l 0.52447,3.3915 19.62494,-0.0729 c 18.85186,-0.0701 19.68021,-0.0907 21.02831,-0.52415 1.72875,-0.55585 3.04531,-1.48544 3.87109,-2.73329 0.62596,-0.94588 0.62907,-0.97004 0.76674,-5.962059 0.076,-2.75678 0.1195,-5.03711 0.0966,-5.06739 -0.0229,-0.0303 -1.08119,0.29503 -2.35177,0.72292 -1.27059,0.42789 -2.31015,0.73394 -2.31015,0.68011 0,-0.0538 0.47361,-0.73676 1.05246,-1.51763 1.01884,-1.37439 2.4351,-4.02497 2.2497,-4.21037 -0.0501,-0.0501 -0.73692,0.44739 -1.52631,1.10549 -2.38428,1.98772 -6.34785,4.34119 -6.70674,3.98229 -0.10192,-0.10191 9.63811,-10.87186 9.94345,-10.99488 0.21755,-0.0877 0.54899,1.51122 1.11584,5.3829 1.39909,9.55588 1.12111,16.449499 -0.7635,18.934019 -1.37891,1.81784 -3.68357,2.9936 -7.52197,3.83744 -1.54639,0.33996 -3.26629,0.47923 -7.0697,0.57247 l -5.02617,0.12321 -0.37953,1.40211 c -0.20875,0.77116 -0.62319,1.83107 -0.92099,2.35536 l -0.54145,0.95331 h 15.68277 15.68276 l 1.61738,0.89541 c 3.0017,1.6618 3.57095,1.52272 -6.91497,1.68947 -50.97514,0.81063 -138.333963,1.25673 -159.491883,0.81446 z m 27.860249,-1.95928 6.476983,-0.14937 -0.537579,-0.79217 c -0.543581,-0.80101 -1.21658,-2.73247 -1.21658,-3.49151 0,-0.37997 -0.259692,-0.4129 -3.255852,-0.4129 -1.790721,0 -5.261765,-0.0672 -7.713436,-0.14929 -3.728234,-0.12487 -4.473288,-0.097 -4.553572,0.17029 -0.05279,0.17577 -0.272569,1.01337 -0.488392,1.86134 -0.215822,0.84796 -0.632313,1.89528 -0.925534,2.32736 l -0.533129,0.78561 h 3.135055 c 1.724278,0 6.049693,-0.0672 9.612036,-0.14936 z m 33.506266,-0.27941 3.693338,-0.13888 -0.538663,-0.79471 c -0.296265,-0.43709 -0.783233,-1.43181 -1.082153,-2.2105 l -0.543488,-1.41579 -3.632956,-0.004 c -1.998125,-0.002 -5.68771,-0.0705 -8.199077,-0.15187 l -4.566122,-0.14795 -0.15465,0.82435 c -0.08506,0.4534 -0.540995,1.5931 -1.013195,2.53267 l -0.858547,1.70832 6.601088,-0.0314 c 3.630596,-0.0173 8.263087,-0.0939 10.294425,-0.1703 z m 54.262794,-0.80552 c 0.0307,-0.0279 -0.24105,-0.60449 -0.60398,-1.28142 -0.36292,-0.67693 -0.78742,-1.66503 -0.94331,-2.19578 l -0.28343,-0.965 h -5.37624 c -2.95693,0 -9.82857,0.0676 -15.27031,0.15021 l -9.89407,0.15021 -0.13945,0.92988 c -0.0767,0.51143 -0.39235,1.47575 -0.70146,2.14293 -0.30911,0.66718 -0.56202,1.26717 -0.56202,1.33332 0,0.11147 33.65017,-0.1519 33.77427,-0.26435 z M 99.488785,103.8969 c 0.0675,-1.71838 0.009,-3.34705 -0.14796,-4.101839 -0.56198,-2.70706 -2.25011,-5.19588 -3.52429,-5.19588 -1.48901,0 -2.687738,2.21937 -3.43394,6.357679 -0.0969,0.53738 -0.06665,0.52659 0.567159,-0.20231 2.393291,-2.752359 4.116781,-1.943829 5.093121,2.3893 0.20068,0.89065 0.43645,2.52548 0.52394,3.63296 l 0.15907,2.01361 0.32549,-1.02177 c 0.17903,-0.56197 0.37586,-2.30426 0.43741,-3.87175 z m -66.204133,2.37625 c 0.232309,-0.51032 0.685949,-1.06891 1.008088,-1.24131 0.509906,-0.27289 0.671234,-0.26438 1.24656,0.0658 0.64512,0.37024 0.66044,0.36736 0.643576,-0.12105 -0.02895,-0.83852 -0.552852,-2.036 -1.029105,-2.35222 -0.590455,-0.39205 -1.28467,0.0675 -1.887768,1.24969 -0.426361,0.83573 -0.940116,3.08883 -0.9105,3.99304 0.01374,0.41965 0.0413,0.40926 0.261068,-0.0985 0.135135,-0.31221 0.435771,-0.98518 0.668081,-1.4955 z M 20.305969,105.6445 c 0,-0.0443 1.404932,-0.20131 3.122071,-0.34884 1.71714,-0.14752 3.403058,-0.32371 3.746486,-0.39154 0.520532,-0.10281 0.624414,-0.0448 0.624414,0.34883 0,0.4591 -0.103656,0.47216 -3.746485,0.47216 -2.060568,0 -3.746486,-0.0363 -3.746486,-0.0806 z m 21.343616,-1.40012 v -0.74378 l 1.532653,-0.14336 c 2.310596,-0.21614 40.702546,-2.85284 41.551933,-2.85373 0.688872,-6.8e-4 0.737944,0.0509 0.737944,0.77587 v 0.77663 l -1.419123,0.13539 c -0.780518,0.0745 -10.206335,0.6926 -20.946261,1.37362 -10.739926,0.68103 -19.96139,1.27983 -20.492142,1.33068 -0.957716,0.0918 -0.965004,0.0868 -0.965004,-0.65132 z m 66.624625,-4.346299 c -0.10087,-0.67261 -0.0669,-1.08955 0.097,-1.19086 0.37332,-0.23073 19.67722,-1.70152 20.11704,-1.53274 0.29743,0.11413 0.36178,0.39437 0.30744,1.33895 l -0.0687,1.1946 -8.28768,0.486489 c -4.55822,0.26758 -9.12518,0.54321 -10.14879,0.61251 l -1.86112,0.12601 z m -86.492353,-6.33228 c 0.124883,-0.0491 6.919646,-1.46192 15.099473,-3.13957 8.179827,-1.67765 28.435132,-5.83694 45.01179,-9.24287 16.576655,-3.40594 30.19158,-6.14041 30.25539,-6.0766 0.1588,0.1588 0.43942,3.59824 0.29357,3.59824 -0.0642,0 -10.93552,1.79224 -24.15842,3.98276 -56.484542,9.35728 -66.455623,11.00224 -66.588528,10.98526 -0.07718,-0.01 -0.03816,-0.0581 0.08672,-0.10722 z M 137.9376,89.933861 c -2.67691,-0.68569 -4.91254,-1.29215 -4.96807,-1.34768 -0.0555,-0.0555 -0.1534,-2.19933 -0.21749,-4.76401 -0.0894,-3.57883 -0.0522,-4.66305 0.16019,-4.66305 0.46142,0 5.20721,2.32774 7.85596,3.85323 3.45164,1.98791 6.35996,3.97353 7.76978,5.30474 1.803,1.70247 1.59022,2.21227 -0.68087,1.63122 -1.69682,-0.43413 -5.75526,-2.03586 -8.96917,-3.53984 -1.28005,-0.59902 -2.32737,-1.00842 -2.32737,-0.9098 0,0.31579 2.33652,2.3949 3.82179,3.40075 0.79071,0.53548 1.99129,1.22707 2.66795,1.53685 0.67666,0.30979 1.2303,0.60685 1.2303,0.66013 0,0.31297 -2.04829,-0.0624 -6.343,-1.16254 z M 20.342967,82.802701 c 0.722446,-0.4556 10.023883,-4.11884 15.251,-6.00638 13.096354,-4.72917 24.543176,-8.219282 56.689941,-17.284651 12.102922,-3.413015 18.500582,-5.275082 25.845012,-7.522308 2.66309,-0.814842 4.86693,-1.446591 4.89743,-1.403885 0.19779,0.276942 1.27257,2.995853 1.27076,3.214687 -0.001,0.162472 -7.526,2.357627 -19.01625,5.547578 -10.457725,2.903294 -33.727507,9.369097 -51.710639,14.368449 -37.836198,10.51855 -33.707842,9.38959 -33.227254,9.08651 z m 136.312383,-2.20327 c -7.2163,-0.85886 -12.93286,-2.32875 -18.6404,-4.79297 l -2.02174,-0.87288 -0.18086,-1.23636 c -1.54706,-10.575304 -5.28369,-25.772187 -10.3479,-42.084983 l -0.9095,-2.929647 3.44839,0.140955 c 7.70156,0.314807 17.1112,1.975139 24.13641,4.258871 6.06915,1.972941 10.07602,3.990619 13.63538,6.866165 l 1.91449,1.546681 -0.60572,-1.206092 c -0.85477,-1.702019 -2.38643,-3.803073 -3.51703,-4.8245 -2.11037,-1.9066 -13.0751,-6.183458 -20.64863,-8.054128 -6.3831,-1.576631 -13.26013,-2.306953 -17.65061,-1.874448 L 122.7165,25.787407 72.728337,46.235241 C 45.234851,57.481551 22.703961,66.646858 22.659693,66.602591 22.54512,66.488019 42.668838,56.565367 49.710206,53.264459 69.230968,44.113361 88.740602,35.651746 108.74575,27.65988 c 14.77381,-5.902001 13.81783,-5.633573 19.30007,-5.419233 10.17846,0.397948 25.21005,4.01026 33.47699,8.045013 3.88406,1.895651 6.36521,4.781211 9.3216,10.840958 2.62438,5.379238 4.66937,11.340351 6.93254,20.208316 1.16572,4.567741 3.06026,13.467257 3.06026,14.375427 0,0.32091 -0.45791,0.64188 -1.75971,1.23346 -5.80356,2.63733 -11.61996,3.83645 -18.28994,3.7707 -1.89807,-0.0187 -3.75756,-0.0705 -4.13221,-0.11509 z M 22.349507,77.876671 c 2.521478,-1.16119 10.918871,-4.61271 15.667122,-6.43954 11.105896,-4.272847 23.517127,-8.456974 48.477255,-16.342854 8.741801,-2.761875 20.035756,-6.395853 25.097676,-8.075502 5.06192,-1.679652 9.30283,-3.053911 9.42425,-3.053911 0.12142,0 0.49465,0.761513 0.8294,1.692252 0.55048,1.530573 0.57205,1.703129 0.22579,1.806101 -0.21057,0.06262 -22.943675,7.066546 -50.518012,15.564286 -27.574336,8.497738 -50.206516,15.444558 -50.293733,15.437358 -0.08722,-0.007 0.403396,-0.27188 1.090252,-0.58819 z m -0.561472,-3.23042 c 0.291426,-0.27587 6.996516,-3.22522 12.81013,-5.634761 13.565432,-5.622394 20.607756,-8.286293 61.3187,-23.195008 5.807055,-2.126596 13.412165,-4.944387 16.900245,-6.261758 3.48809,-1.317373 6.36247,-2.371124 6.38753,-2.341672 0.18033,0.211954 1.46174,2.922584 1.46174,3.092095 0,0.117286 -0.89405,0.517637 -1.98677,0.88967 -2.17118,0.739207 -92.817712,32.153514 -95.869806,33.224484 -0.683457,0.23982 -1.143253,0.34195 -1.021769,0.22695 z m 105.576605,-2.89893 c -1.16264,-1.034547 -4.52131,-3.367933 -6.64559,-4.616925 -0.90765,-0.533663 -1.7007,-1.051882 -1.76233,-1.151595 -0.14222,-0.230116 7.67694,-2.747421 7.86672,-2.532613 0.11614,0.131468 1.79003,8.536323 1.79003,8.988053 0,0.29705 -0.37456,0.091 -1.24883,-0.68692 z M 22.349507,70.926712 c 0.261999,-0.301431 15.566217,-7.154083 26.33893,-11.793578 11.901391,-5.125588 67.348703,-28.164292 68.572053,-28.492117 0.24009,-0.06434 0.52534,0.363715 0.96674,1.45068 0.34438,0.848072 0.62536,1.652527 0.62441,1.787678 -9.1e-4,0.13515 -0.33381,0.351055 -0.73968,0.479787 -0.40587,0.128733 -21.939655,8.364035 -47.852847,18.300673 C 17.307646,72.964531 22.199394,71.099416 22.349507,70.926712 Z m 89.123943,-8.579498 c -1.49695,-0.604335 -2.56981,-1.150159 -2.38413,-1.212948 0.18568,-0.06279 3.55618,-0.942532 7.48999,-1.954987 3.93381,-1.012455 7.30888,-1.88656 7.50016,-1.942455 0.24659,-0.07206 0.58905,0.385976 1.17701,1.574226 l 0.82923,1.67585 -3.90173,1.039148 c -5.88958,1.568574 -7.48313,1.968202 -7.74774,1.942953 -0.13258,-0.01265 -1.46584,-0.517454 -2.96279,-1.121787 z"
       id="path305" /><text
       xml:space="preserve"
       style="font-size:21.3554px;font-family:'Accanthis ADF Std No3';-inkscape-font-specification:'Accanthis ADF Std No3, Normal';text-align:center;text-anchor:middle;fill:#393185;fill-opacity:1;stroke-width:7.49876;stroke-linecap:round"
       x="85.065811"
       y="170.35863"
       id="text637"
       transform="scale(1.2382595,0.80758516)"><tspan
         sodipodi:role="line"
         id="tspan635"
         style="font-style:normal;font-variant:normal;font-weight:normal;font-stretch:normal;font-size:21.3554px;font-family:dsrom10;-inkscape-font-specification:'dsrom10, Normal';font-variant-ligatures:normal;font-variant-caps:normal;font-variant-numeric:normal;font-variant-east-asian:normal;stroke-width:7.49876"
         x="85.065811"
         y="170.35863">TRAVEL</tspan></text><text
       xml:space="preserve"
       style="font-style:normal;font-variant:normal;font-weight:normal;font-stretch:normal;font-size:7.79827px;font-family:Dyuthi;-inkscape-font-specification:'Dyuthi, Normal';font-variant-ligatures:normal;font-variant-caps:normal;font-variant-numeric:normal;font-variant-east-asian:normal;text-align:center;text-anchor:middle;fill:#393185;fill-opacity:1;stroke-width:0.54775;stroke-linecap:round"
       x="104.93277"
       y="145.70479"
       id="text691"><tspan
         sodipodi:role="line"
         id="tspan689"
         style="font-style:normal;font-variant:normal;font-weight:normal;font-stretch:normal;font-size:7.79827px;font-family:Dyuthi;-inkscape-font-specification:'Dyuthi, Normal';font-variant-ligatures:normal;font-variant-caps:normal;font-variant-numeric:normal;font-variant-east-asian:normal;stroke-width:0.54775"
         x="104.93277"
         y="145.70479">BUS TRANSPORT</tspan></text></g></svg>
